<?xml version="1.0" encoding="UTF-8" standalone="no"?>
<!-- Svg Vector Icons : http://www.onlinewebfonts.com/icon -->

<svg
   version="1.1"
   x="0px"
   y="0px"
   viewBox="0 0 200.43459 200.40996"
   enable-background="new 0 0 1000 1000"
   xml:space="preserve"
   fill="#45F0AE"
   id="svg12"
   sodipodi:docname="libappindicator-gtk3-java.svg"
   width="200.43459"
   height="200.40996"
   inkscape:version="1.2.1 (9c6d41e410, 2022-07-14, custom)"
   xmlns:inkscape="http://www.inkscape.org/namespaces/inkscape"
   xmlns:sodipodi="http://sodipodi.sourceforge.net/DTD/sodipodi-0.dtd"
   xmlns="http://www.w3.org/2000/svg"
   xmlns:svg="http://www.w3.org/2000/svg"><defs
   id="defs16" /><sodipodi:namedview
   id="namedview14"
   pagecolor="#ffffff"
   bordercolor="#000000"
   borderopacity="0.25"
   inkscape:showpageshadow="2"
   inkscape:pageopacity="0.0"
   inkscape:pagecheckerboard="0"
   inkscape:deskcolor="#d1d1d1"
   showgrid="false"
   inkscape:zoom="0.236"
   inkscape:cx="101.69492"
   inkscape:cy="101.69492"
   inkscape:window-width="1440"
   inkscape:window-height="831"
   inkscape:window-x="0"
   inkscape:window-y="0"
   inkscape:window-maximized="1"
   inkscape:current-layer="svg12" />
<metadata
   id="metadata2"> Svg Vector Icons : http://www.onlinewebfonts.com/icon </metadata>
<g
   id="g10"
   transform="matrix(0.20450514,0,0,0.20450514,-2.0281815,-2.0392742)"><path
     d="M 154.3,152.9 C 228.7,78.5 324.5,30.3 430.5,15 560,-3.5 689,29.4 793.7,107.9 898.4,186.4 966.4,300.9 985,430.4 1023.4,697.9 837,946.6 569.7,985 c -112.1,16.1 -227,-7.4 -323.7,-66.1 -16.5,-10 -21.8,-31.6 -11.7,-48.1 10.1,-16.4 31.5,-21.8 48.1,-11.8 82.8,50.3 181.3,70.4 277.4,56.6 C 788.9,882.7 948.6,669.5 915.7,440.2 899.8,329.2 841.5,231 751.7,163.8 662,96.7 551.4,68.5 440.4,84.4 211.1,117.3 51.4,330.6 84.3,559.8 c 8.6,60 29.5,116.1 62,166.6 10.4,16.3 5.7,38 -10.5,48.4 -16.3,10.5 -37.9,5.8 -48.4,-10.5 C 49.4,705.2 25.1,639.8 14.9,569.7 -3.5,440.3 29.4,311.2 108,206.4 c 14.2,-19.1 29.7,-37 46.3,-53.5 z"
     id="path4" /><path
     d="m 354.5,780.6 c -37.4,0 -72.5,-14.1 -99,-39.6 -26.6,-25.8 -41.3,-60.1 -41.3,-96.7 0,-36.5 14.7,-70.9 41.3,-96.7 l 101.2,-97.9 c 37.3,-36.1 79.6,-55.9 119.3,-55.9 30.6,0 58.7,11.6 81.5,33.6 8.7,8.5 13.5,19.7 13.6,31.8 0,12 -4.7,23.3 -13.4,31.8 -8.6,8.5 -20,13.1 -32.3,13.1 -12.1,0 -23.5,-4.6 -32,-12.9 -5.5,-5.3 -11.6,-7.9 -18.7,-7.9 -14.6,0 -33.7,10.7 -53.8,30.3 l -101.3,98 c -9.1,8.8 -14.1,20.4 -14.1,32.9 0,12.4 5,24 14.1,32.9 9.3,9 21.7,13.9 34.9,13.9 13.2,0 25.6,-4.9 34.9,-13.9 l 27.5,-26.6 c 8.6,-8.3 20,-12.9 32,-12.9 12.2,0 23.6,4.7 32.3,13.1 8.7,8.5 13.4,19.8 13.4,31.9 -0.1,12 -4.9,23.3 -13.6,31.7 l -27.5,26.6 c -26.4,25.3 -61.6,39.4 -99,39.4 z"
     id="path6" /><path
     d="m 522.4,619.8 c -30.5,0 -59.5,-12.5 -84,-36.2 -8.7,-8.5 -13.6,-19.8 -13.6,-31.8 0,-12 4.7,-23.3 13.4,-31.8 8.6,-8.5 20.1,-13.1 32.3,-13.1 12.1,0 23.5,4.6 32.1,12.9 4.5,4.4 10.7,10.3 20.3,10.3 12.1,0 27.8,-9 45.5,-26.1 l 108,-104.5 c 9.1,-8.8 14.1,-20.5 14.1,-32.9 0,-12.4 -5,-24.1 -14.1,-32.8 -11.4,-11.1 -25.1,-17.4 -37.6,-17.4 -9.4,0 -18,3.7 -25.4,10.9 L 579,360.5 c -8.6,8.3 -20,12.9 -32.1,12.9 -12.2,0 -23.7,-4.7 -32.3,-13.1 -8.7,-8.5 -13.4,-19.8 -13.4,-31.8 0,-12 4.9,-23.3 13.6,-31.8 l 34.3,-33.2 c 24.6,-23.8 56.4,-36.9 89.7,-36.9 36.5,0 72.5,15.4 101.5,43.4 26.7,25.8 41.3,60.1 41.3,96.7 0,36.6 -14.7,70.9 -41.3,96.7 l -108,104.5 c -35.1,33.9 -73.1,51.9 -109.9,51.9 z"
     id="path8" /></g>
</svg>
