<?xml version="1.0" encoding="utf-8"?>
<!-- Svg Vector Icons : http://www.onlinewebfonts.com/icon -->
<!DOCTYPE svg PUBLIC "-//W3C//DTD SVG 1.1//EN" "http://www.w3.org/Graphics/SVG/1.1/DTD/svg11.dtd">
<svg version="1.1" xmlns="http://www.w3.org/2000/svg" xmlns:xlink="http://www.w3.org/1999/xlink" x="0px" y="0px" viewBox="0 0 1000 1000" enable-background="new 0 0 1000 1000" xml:space="preserve" fill="#45F0AE">
<metadata> Svg Vector Icons : http://www.onlinewebfonts.com/icon </metadata>
<g><path d="M154.3,152.9C228.7,78.5,324.5,30.3,430.5,15C560-3.5,689,29.4,793.7,107.9c104.7,78.5,172.7,193,191.3,322.5c38.4,267.5-148,516.2-415.3,554.6c-112.1,16.1-227-7.4-323.7-66.1c-16.5-10-21.8-31.6-11.7-48.1c10.1-16.4,31.5-21.8,48.1-11.8c82.8,50.3,181.3,70.4,277.4,56.6c229.1-32.9,388.8-246.1,355.9-475.4c-15.9-111-74.2-209.2-164-276.4C662,96.7,551.4,68.5,440.4,84.4c-229.3,32.9-389,246.2-356.1,475.4c8.6,60,29.5,116.1,62,166.6c10.4,16.3,5.7,38-10.5,48.4c-16.3,10.5-37.9,5.8-48.4-10.5c-38-59.1-62.3-124.5-72.5-194.6C-3.5,440.3,29.4,311.2,108,206.4C122.2,187.3,137.7,169.4,154.3,152.9L154.3,152.9L154.3,152.9z"/><path d="M354.5,780.6c-37.4,0-72.5-14.1-99-39.6c-26.6-25.8-41.3-60.1-41.3-96.7c0-36.5,14.7-70.9,41.3-96.7l101.2-97.9c37.3-36.1,79.6-55.9,119.3-55.9c30.6,0,58.7,11.6,81.5,33.6c8.7,8.5,13.5,19.7,13.6,31.8c0,12-4.7,23.3-13.4,31.8c-8.6,8.5-20,13.1-32.3,13.1c-12.1,0-23.5-4.6-32-12.9c-5.5-5.3-11.6-7.9-18.7-7.9c-14.6,0-33.7,10.7-53.8,30.3l-101.3,98c-9.1,8.8-14.1,20.4-14.1,32.9c0,12.4,5,24,14.1,32.9c9.3,9,21.7,13.9,34.9,13.9c13.2,0,25.6-4.9,34.9-13.9l27.5-26.6c8.6-8.3,20-12.9,32-12.9c12.2,0,23.6,4.7,32.3,13.1c8.7,8.5,13.4,19.8,13.4,31.9c-0.1,12-4.9,23.3-13.6,31.7l-27.5,26.6C427.1,766.5,391.9,780.6,354.5,780.6z"/><path d="M522.4,619.8c-30.5,0-59.5-12.5-84-36.2c-8.7-8.5-13.6-19.8-13.6-31.8c0-12,4.7-23.3,13.4-31.8c8.6-8.5,20.1-13.1,32.3-13.1c12.1,0,23.5,4.6,32.1,12.9c4.5,4.4,10.7,10.3,20.3,10.3c12.1,0,27.8-9,45.5-26.1l108-104.5c9.1-8.8,14.1-20.5,14.1-32.9c0-12.4-5-24.1-14.1-32.8c-11.4-11.1-25.1-17.4-37.6-17.4c-9.4,0-18,3.7-25.4,10.9L579,360.5c-8.6,8.3-20,12.9-32.1,12.9c-12.2,0-23.7-4.7-32.3-13.1c-8.7-8.5-13.4-19.8-13.4-31.8c0-12,4.9-23.3,13.6-31.8l34.3-33.2c24.6-23.8,56.4-36.9,89.7-36.9c36.5,0,72.5,15.4,101.5,43.4c26.7,25.8,41.3,60.1,41.3,96.7c0,36.6-14.7,70.9-41.3,96.7l-108,104.5C597.2,601.8,559.2,619.8,522.4,619.8z"/></g>
</svg>
